<svg width="14" height="12" viewBox="0 0 14 12" fill="none" xmlns="http://www.w3.org/2000/svg">
<path id="Vector" d="M12.67 1.11406C11.9483 0.399325 10.9928 0.00868101 9.97297 0.00868101C8.95318 0.00868101 7.99474 0.402218 7.273 1.11695L6.89605 1.49023L6.51326 1.11116C5.79152 0.396431 4.83016 0 3.81037 0C2.7935 0 1.83506 0.393537 1.11624 1.10538C0.394493 1.82011 -0.00290605 2.76923 1.60003e-05 3.77912C1.60003e-05 4.789 0.400337 5.73523 1.12208 6.44996L6.60969 11.8843C6.68567 11.9595 6.78794 12 6.88729 12C6.98664 12 7.08891 11.9624 7.16488 11.8871L12.6642 6.46154C13.3859 5.7468 13.7833 4.79769 13.7833 3.7878C13.7862 2.77791 13.3918 1.82879 12.67 1.11406ZM12.109 5.90885L6.88729 11.0596L1.67727 5.90017C1.10455 5.33301 0.788969 4.58066 0.788969 3.77912C0.788969 2.97757 1.10163 2.22522 1.67435 1.66096C2.24415 1.0967 3.00388 0.784181 3.81037 0.784181C4.61978 0.784181 5.38243 1.0967 5.95515 1.66385L6.61554 2.31782C6.77041 2.47118 7.01878 2.47118 7.17365 2.31782L7.82819 1.66964C8.40091 1.10248 9.16356 0.789969 9.97005 0.789969C10.7765 0.789969 11.5363 1.10248 12.109 1.66675C12.6817 2.2339 12.9944 2.98625 12.9944 3.7878C12.9973 4.58934 12.6817 5.34169 12.109 5.90885Z" fill="#F17B3E"/>
</svg>
